<?xml version="1.0" encoding="UTF-8" standalone="no"?>
<!-- Created with Inkscape (http://www.inkscape.org/) -->

<svg
   width="512"
   height="512"
   viewBox="0 0 512 512"
   version="1.1"
   id="svg1"
   xml:space="preserve"
   sodipodi:docname="icon.svg"
   inkscape:version="1.3.2 (091e20ef0f, 2023-11-25)"
   inkscape:export-filename="favicon.png"
   inkscape:export-xdpi="96"
   inkscape:export-ydpi="96"
   xmlns:inkscape="http://www.inkscape.org/namespaces/inkscape"
   xmlns:sodipodi="http://sodipodi.sourceforge.net/DTD/sodipodi-0.dtd"
   xmlns="http://www.w3.org/2000/svg"
   xmlns:svg="http://www.w3.org/2000/svg"><sodipodi:namedview
     id="namedview1"
     pagecolor="#ffffff"
     bordercolor="#000000"
     borderopacity="0.25"
     inkscape:showpageshadow="2"
     inkscape:pageopacity="0.0"
     inkscape:pagecheckerboard="true"
     inkscape:deskcolor="#d1d1d1"
     inkscape:document-units="px"
     inkscape:zoom="1.3072042"
     inkscape:cx="328.18131"
     inkscape:cy="384.40818"
     inkscape:window-width="2232"
     inkscape:window-height="1430"
     inkscape:window-x="0"
     inkscape:window-y="0"
     inkscape:window-maximized="1"
     inkscape:current-layer="layer1" /><defs
     id="defs1"><inkscape:path-effect
       effect="copy_rotate"
       starting_point="649.03343,246.26481"
       origin="275.50636,245.56"
       id="path-effect17"
       is_visible="true"
       lpeversion="1.2"
       lpesatellites=""
       method="normal"
       num_copies="3"
       starting_angle="0"
       rotation_angle="120"
       gap="-0.01"
       copies_to_360="true"
       mirror_copies="false"
       split_items="false"
       link_styles="false" /><inkscape:path-effect
       effect="mirror_symmetry"
       start_point="275.54561,156.92896"
       end_point="275.54561,244.70678"
       center_point="275.54561,200.81787"
       id="path-effect15"
       is_visible="true"
       lpeversion="1.2"
       lpesatellites=""
       mode="free"
       discard_orig_path="false"
       fuse_paths="true"
       oposite_fuse="false"
       split_items="false"
       split_open="false"
       link_styles="false" /><linearGradient
       id="swatch11"
       inkscape:swatch="solid"><stop
         style="stop-color:#ffffff;stop-opacity:1;"
         offset="0"
         id="stop12" /></linearGradient><inkscape:path-effect
       effect="mirror_symmetry"
       start_point="275.48689,190.73289"
       end_point="275.48689,243.19221"
       center_point="275.48689,216.96255"
       id="path-effect6"
       is_visible="true"
       lpeversion="1.2"
       lpesatellites=""
       mode="free"
       discard_orig_path="false"
       fuse_paths="false"
       oposite_fuse="false"
       split_items="false"
       split_open="false"
       link_styles="false" /><inkscape:path-effect
       effect="copy_rotate"
       starting_point="649.03343,246.26481"
       origin="275.50636,245.56"
       id="path-effect5"
       is_visible="true"
       lpeversion="1.2"
       lpesatellites=""
       method="normal"
       num_copies="3"
       starting_angle="0"
       rotation_angle="120"
       gap="-0.01"
       copies_to_360="true"
       mirror_copies="false"
       split_items="false"
       link_styles="false" /><inkscape:path-effect
       effect="mirror_symmetry"
       start_point="275.54561,156.92896"
       end_point="275.54561,244.70678"
       center_point="275.54561,200.81787"
       id="path-effect4"
       is_visible="true"
       lpeversion="1.2"
       lpesatellites=""
       mode="free"
       discard_orig_path="false"
       fuse_paths="true"
       oposite_fuse="false"
       split_items="false"
       split_open="false"
       link_styles="false" /><inkscape:path-effect
       effect="copy_rotate"
       starting_point="0,0"
       origin="274.8,267.7"
       id="path-effect3"
       is_visible="true"
       lpeversion="1.2"
       lpesatellites=""
       method="normal"
       num_copies="3"
       starting_angle="0"
       rotation_angle="120"
       gap="-0.01"
       copies_to_360="true"
       mirror_copies="false"
       split_items="false"
       link_styles="false" /><inkscape:path-effect
       effect="mirror_symmetry"
       start_point="274.82654,161.50171"
       end_point="274.82654,267.68962"
       center_point="274.82654,214.59566"
       id="path-effect2"
       is_visible="true"
       lpeversion="1.2"
       lpesatellites=""
       mode="free"
       discard_orig_path="false"
       fuse_paths="true"
       oposite_fuse="false"
       split_items="false"
       split_open="false"
       link_styles="false" /><inkscape:path-effect
       effect="copy_rotate"
       starting_point="0,0"
       origin="278.9,245.4"
       id="path-effect1"
       is_visible="true"
       lpeversion="1.2"
       lpesatellites=""
       method="normal"
       num_copies="3"
       starting_angle="0"
       rotation_angle="120"
       gap="-0.01"
       copies_to_360="true"
       mirror_copies="false"
       split_items="false"
       link_styles="false" /><inkscape:path-effect
       effect="mirror_symmetry"
       start_point="278.89474,97.902151"
       end_point="278.89474,245.07101"
       center_point="278.89474,171.48658"
       id="path-effect9"
       is_visible="true"
       lpeversion="1.2"
       lpesatellites=""
       mode="free"
       discard_orig_path="false"
       fuse_paths="true"
       oposite_fuse="false"
       split_items="false"
       split_open="false"
       link_styles="false" /><inkscape:path-effect
       effect="mirror_symmetry"
       start_point="276.18994,241.06046"
       end_point="276.18994,101.99704"
       center_point="276.18994,171.52875"
       id="path-effect8"
       is_visible="true"
       lpeversion="1.2"
       lpesatellites=""
       mode="free"
       discard_orig_path="false"
       fuse_paths="false"
       oposite_fuse="false"
       split_items="false"
       split_open="false"
       link_styles="false" /><mask
       maskUnits="userSpaceOnUse"
       id="mask2"><rect
         style="fill:#ffffff;fill-opacity:1;stroke-width:1.88976"
         id="rect2"
         width="292.5318"
         height="284.59088"
         x="112.88154"
         y="113.70454" /></mask><filter
       id="mask-powermask-path-effect18_inverse"
       inkscape:label="filtermask-powermask-path-effect18"
       style="color-interpolation-filters:sRGB"
       height="100"
       width="100"
       x="-50"
       y="-50"><feColorMatrix
         id="mask-powermask-path-effect18_primitive1"
         values="1"
         type="saturate"
         result="fbSourceGraphic" /><feColorMatrix
         id="mask-powermask-path-effect18_primitive2"
         values="-1 0 0 0 1 0 -1 0 0 1 0 0 -1 0 1 0 0 0 1 0 "
         in="fbSourceGraphic" /></filter><mask
       maskUnits="userSpaceOnUse"
       id="mask21"><g
         id="g22"
         style="display:inline"><rect
           style="fill:#ffffff;fill-opacity:1;stroke:none;stroke-width:12;stroke-dasharray:none;stroke-opacity:1"
           id="rect21"
           width="367.09427"
           height="345.78586"
           x="88.341278"
           y="49.238647" /><path
           style="display:inline;fill:#000000;fill-opacity:1;stroke:none;stroke-width:12;stroke-dasharray:none;stroke-opacity:1"
           d="m 275.54492,157.73047 c -3.58459,0 -15.93178,7.2733 -17.23047,11.67773 -1.29869,4.40444 1.16176,7.41344 2.36133,13.95703 1.19957,6.5436 2.72385,33.34493 3.19141,40.16602 0.46745,6.8194 3.92542,18.61718 11.67773,18.62305 7.75231,-0.006 11.21224,-11.80365 11.67969,-18.62305 0.46756,-6.82109 1.99184,-33.62242 3.19141,-40.16602 1.19956,-6.54359 3.66001,-9.55259 2.36132,-13.95703 -1.29868,-4.40443 -13.64782,-11.67773 -17.23242,-11.67773 z m -76.12045,131.7109 c 1.7923,3.10435 14.26476,10.16068 18.72845,9.08316 4.4637,-1.07752 5.83935,-4.71284 10.90648,-9.02349 5.06714,-4.31065 27.51563,-19.03138 33.18909,-22.84685 5.67204,-3.81452 14.16024,-12.7081 10.28916,-19.42473 -3.88123,-6.71077 -15.82837,-3.80826 -21.96787,-0.80339 -6.14102,3.00563 -30.11379,15.08623 -36.38049,17.31917 -6.26671,2.23294 -10.1028,1.60663 -13.26781,4.93355 -3.16501,3.32691 -3.2893,17.65823 -1.49701,20.76258 z m 152.12521,0.0668 c 1.7923,-3.10435 1.66703,-17.43397 -1.49798,-20.76089 -3.165,-3.32691 -7.0011,-2.70061 -13.2678,-4.93355 -6.26671,-2.23293 -30.23948,-14.31354 -36.3805,-17.31916 -6.1395,-3.00488 -18.08566,-5.90908 -21.9669,0.80169 -3.87107,6.71663 4.61615,15.6119 10.28819,19.42643 5.67346,3.81546 28.12196,18.53619 33.18909,22.84684 5.06713,4.31066 6.44278,7.94597 10.90648,9.02349 4.4637,1.07752 16.93713,-5.9805 18.72942,-9.08485 z"
           id="path21"
           sodipodi:nodetypes="czzzzc"
           transform="translate(-1.0187403e-5,2.6744384e-5)"
           inkscape:original-d="m 275.54537,157.73096 c -3.5846,0 -15.93189,7.27272 -17.23058,11.67716 -1.29869,4.40444 1.16175,7.41392 2.36132,13.95752 1.19957,6.5436 2.72387,33.34419 3.19143,40.16529 0.46757,6.8211 3.92747,18.62411 11.68385,18.62411 7.75638,0 -0.006,-84.42408 -0.006,-84.42408 z"
           inkscape:path-effect="#path-effect15;#path-effect17" /></g></mask></defs><g
     inkscape:label="Layer 1"
     inkscape:groupmode="layer"
     id="layer1"
     style="display:inline"><ellipse
       style="display:inline;fill:#ffffff;stroke-width:12.797"
       id="path2"
       cx="255.91917"
       cy="256.20184"
       rx="256.08081"
       ry="255.79817" /><g
       id="g21"
       mask="url(#mask21)"
       transform="matrix(0.92405207,0.53291285,-0.53350171,0.92303213,131.6893,-117.28429)"
       inkscape:transform-center-y="3.1743444"
       inkscape:transform-center-x="42.917148"><path
         style="display:inline;fill:none;fill-opacity:1;stroke:#b280ff;stroke-width:12;stroke-dasharray:none;stroke-opacity:1"
         d="m 274.82617,162.58594 c -10.33598,10.38643 -32.12751,33.84042 -31.94531,46.79492 0.23877,16.97644 14.23398,33.06491 19.55078,38.72851 5.31681,5.66361 8.79727,17.58985 12.37109,17.58985 0.008,0 0.0154,7.7e-4 0.0234,0 0.008,7.7e-4 0.0173,0 0.0254,0 3.57383,0 7.05234,-11.92624 12.36914,-17.58985 5.31681,-5.6636 19.31397,-21.75207 19.55274,-38.72851 0.1822,-12.9545 -21.61129,-36.40849 -31.94727,-46.79492 z m -91.0707,157.64843 c 14.1629,3.758 45.37042,10.90303 56.49824,4.26799 14.58265,-8.69501 21.51807,-28.85944 23.76449,-36.29573 2.24642,-7.43629 10.83462,-16.41358 9.04771,-19.50861 -0.004,-0.007 -0.007,-0.0137 -0.0117,-0.0203 -0.003,-0.007 -0.009,-0.015 -0.0127,-0.022 -1.78691,-3.09503 -13.85459,-0.14439 -21.41782,-1.91707 -7.56323,-1.77269 -28.49483,-5.85035 -43.31625,2.43109 -11.31002,6.31946 -20.72503,36.92017 -24.55195,51.06461 z m 182.06289,0.0453 c -3.82692,-14.14444 -13.24291,-44.74346 -24.55293,-51.06292 -14.82142,-8.28144 -35.75204,-4.20547 -43.31527,-2.43278 -7.56323,1.77268 -19.63189,-1.17627 -21.4188,1.91876 -0.004,0.007 -0.008,0.0129 -0.0117,0.0203 -0.005,0.007 -0.009,0.015 -0.0127,0.022 -1.78692,3.09502 6.80225,12.07062 9.04868,19.50691 2.24642,7.43629 9.18086,27.60242 23.76351,36.29742 11.12782,6.63504 42.33632,-0.51168 56.49922,-4.26968 z"
         id="path1"
         sodipodi:nodetypes="cszzc"
         transform="rotate(-60,256.00002,255.99999)"
         inkscape:original-d="m 280.14024,157.39555 c 0,0 -1.05539,108.30428 -5.338,108.30428 -3.57383,0 -7.05354,-11.92773 -12.37035,-17.59134 -5.31681,-5.66361 -19.31265,-21.75099 -19.55142,-38.72745 -0.23877,-16.97646 37.25977,-51.98549 37.25977,-51.98549 z"
         inkscape:path-effect="#path-effect2;#path-effect3" /><path
         style="display:inline;fill:none;fill-opacity:1;stroke:#8700ff;stroke-width:12;stroke-dasharray:none;stroke-opacity:1"
         d="m 278.89453,63.316406 c -10.25418,8.614546 -31.70111,27.654779 -38.57617,41.640624 -9.15439,18.62265 -7.5988,41.66473 2.00976,57.26953 9.60856,15.60481 23.18205,9.84091 26.5254,17.88281 3.342,8.03868 3.58097,64.3648 10.04101,64.41016 6.46005,-0.0454 6.69902,-56.37148 10.04102,-64.41016 3.34334,-8.0419 16.91684,-2.278 26.52539,-17.88281 9.60856,-15.6048 11.16611,-38.64688 2.01172,-57.26953 C 310.59759,90.971185 289.14871,71.930952 278.89453,63.316406 Z M 121.21372,336.44653 c 12.5875,4.57311 39.80029,13.62658 55.34992,12.58764 20.70489,-1.3834 39.88211,-14.25162 48.59199,-30.37528 8.70988,-16.12365 -3.06855,-24.99669 2.22427,-31.91307 5.2907,-6.91359 53.95107,-35.28361 50.76033,-40.90085 -3.26931,-5.57188 -52.16865,22.38422 -60.80134,23.5093 -8.63617,1.12553 -10.43124,-13.51141 -28.74967,-14.03025 -18.31844,-0.51886 -39.05223,9.6533 -50.60273,26.89256 -8.67456,12.94691 -14.43945,41.0423 -16.77277,54.22995 z m 315.37803,-0.009 C 434.25843,323.2494 428.49257,295.1557 419.818,282.2088 c -11.55049,-17.23926 -32.28332,-27.41311 -50.60175,-26.89425 -18.31843,0.51884 -20.1135,15.15578 -28.74967,14.03025 -8.63269,-1.12508 -57.53203,-29.08118 -60.80134,-23.5093 -3.19074,5.61724 45.46963,33.98726 50.76033,40.90085 5.29281,6.91638 -6.48561,15.78942 2.22427,31.91307 8.70988,16.12366 27.88613,28.99357 48.59101,30.37696 15.54963,1.03895 42.7634,-8.01621 55.3509,-12.58932 z"
         id="path9"
         sodipodi:nodetypes="czzzcc"
         transform="translate(-3.351171,0.14457029)"
         inkscape:original-d="m 284.46366,58.750746 c 0,0 -34.99147,27.584171 -44.14587,46.206844 -9.1544,18.62267 -7.59809,41.66449 2.01048,57.26931 9.60856,15.60482 23.18204,9.84087 26.52539,17.88278 3.34335,8.04192 3.58122,64.41081 10.04889,64.41081 z"
         inkscape:path-effect="#path-effect9;#path-effect1" /></g><path
       style="display:inline;fill:none;fill-opacity:1;stroke:#9366ff;stroke-width:12;stroke-dasharray:none;stroke-opacity:1"
       d="m 275.54492,157.73047 c -3.78837,0.0502 -15.93178,7.2733 -17.23047,11.67773 -1.29869,4.40444 1.16176,7.41344 2.36133,13.95703 1.19957,6.5436 2.72385,33.34493 3.19141,40.16602 0.46745,6.8194 3.92542,18.61718 11.67773,18.62305 7.75231,-0.006 11.21224,-11.80365 11.67969,-18.62305 0.46756,-6.82109 1.99184,-33.62242 3.19141,-40.16602 1.19956,-6.54359 3.66001,-9.55259 2.36132,-13.95703 -1.29868,-4.40443 -13.44404,-11.62753 -17.23242,-11.67773 z m -76.12045,131.7109 c 1.93767,3.25573 14.26476,10.16068 18.72845,9.08316 4.4637,-1.07752 5.83935,-4.71284 10.90648,-9.02349 5.06714,-4.31065 27.51563,-19.03138 33.18909,-22.84685 5.67204,-3.81452 14.16024,-12.7081 10.28916,-19.42473 -3.88123,-6.71077 -15.82837,-3.80826 -21.96787,-0.80339 -6.14102,3.00563 -30.11379,15.08623 -36.38049,17.31917 -6.26671,2.23294 -10.1028,1.60663 -13.26781,4.93355 -3.16501,3.32691 -3.34772,17.45665 -1.49701,20.76258 z m 152.12521,0.0668 c 1.85072,-3.30593 1.66703,-17.43397 -1.49798,-20.76089 -3.165,-3.32691 -7.0011,-2.70061 -13.2678,-4.93355 -6.26671,-2.23293 -30.23948,-14.31354 -36.3805,-17.31916 -6.1395,-3.00488 -18.08566,-5.90908 -21.9669,0.80169 -3.87107,6.71663 4.61615,15.6119 10.28819,19.42643 5.67346,3.81546 28.12196,18.53619 33.18909,22.84684 5.06713,4.31066 6.44278,7.94597 10.90648,9.02349 4.4637,1.07752 16.79176,-5.82912 18.72942,-9.08485 z"
       id="path3"
       sodipodi:nodetypes="zzzzcz"
       transform="matrix(0.92405207,0.53291285,-0.53350171,0.92303213,131.68928,-117.28427)"
       inkscape:transform-center-x="20.445181"
       inkscape:transform-center-y="3.2833055"
       inkscape:original-d="m 275.54537,157.73096 c -3.78838,0.0502 -15.93189,7.27272 -17.23058,11.67716 -1.29869,4.40444 1.16175,7.41392 2.36132,13.95752 1.19957,6.5436 2.72387,33.34419 3.19143,40.16529 0.46757,6.8211 3.92747,18.62411 11.68385,18.62411 0,0 3.78236,-84.47423 -0.006,-84.42408 z"
       inkscape:path-effect="#path-effect4;#path-effect5" /></g></svg>
