<?xml version="1.0" encoding="UTF-8"?>
<!-- Created with Inkscape (http://www.inkscape.org/) -->
<svg width="1889.8" height="566.93" version="1.1" viewBox="0 0 1889.8 566.93" xmlns="http://www.w3.org/2000/svg" xmlns:xlink="http://www.w3.org/1999/xlink">
 <g>
  <path transform="matrix(1.3333 0 0 -1.3333 48.893 351.17)" d="m0 0c0 43.219 25.017 49.278 42.685 49.278h34.413v16.763h-27.542c-31.106 0-49.556 9.423-49.556 50.886v50.862c23.776-2.8 45.757-17.46 62.408-41.522l14.625 8.338c-39.313 58.138-93.79 50.438-93.79 50.438v-68.116c0-20.595 3.459-46.008 26.685-59.046-9.248-5.478-26.685-19.424-26.685-57.881 0-54.069 60.201-66.151 93.861-46.669l-9.999 13.644c-23.4-12.063-67.105-6.315-67.105 33.025" fill="#003660"/>
  <path transform="matrix(1.3333 0 0 -1.3333 424.84 195.26)" d="m0 0v68.116c1e-3 0-54.495 7.723-93.819-50.481l14.615-8.351c16.656 24.096 38.653 38.776 62.447 41.578v-50.862c0-27.616-5.808-50.886-49.556-50.886h-27.542v-16.763h34.413c21.652 0 42.685-9.489 42.685-49.278 0-39.427-44.021-45.124-67.364-32.886l-9.711-13.764c32.19-18.28 93.832-9.236 93.832 46.65 0 43.633-23.355 55.909-26.685 57.881 23.226 13.038 26.685 38.452 26.685 59.046" fill="#fdbc11"/>
  <g fill="currentColor">
   <path transform="matrix(1.3333 0 0 -1.3333 271.14 411.59)" d="m0 0c0-39.543-45.92-46.696-68.175-30.262l9.963 13.481c11.87-8.768 41.455-7.668 41.455 16.781 0 37.984-30.495 20.441-45.925 45.357-3.607 5.825-5.493 12.814-5.493 20.66 0 30.739 17.128 45.357 41.13 45.357h22.066v-16.762h-22.066c-16.621 0-24.367-9.083-24.367-28.595 0-8.846 3.648-15.166 10.844-18.797 9.345-4.715 40.568-2.785 40.568-47.22"/>
   <path transform="matrix(1.3333 0 0 -1.3333 180.25 181.93)" d="m0 0c0 30.708 17.141 45.357 41.126 45.357h22.067v-16.761h-22.067c-29.499 0-30.876-38.639-13.521-47.395 9.287-4.686 22.733-3.8 30.609 2.019l9.959-13.481c-22.35-16.512-68.173-9.096-68.173 30.261"/>
   <path transform="matrix(1.3333 0 0 -1.3333 486.23 397.67)" d="m0 0v7.361h8.012v59.089h-8.012v7.411h57.135v-20.03h-8.713v12.619h-30.646v-23.486h25.639v-8.112h-25.639v-27.491h30.646v14.472h8.713v-21.833z"/>
   <path transform="matrix(1.3333 0 0 -1.3333 613.11 343.92)" d="m0 0c8.326 8.078 12.66 7.912 16.123 7.912 6.938 0 11.017-3.139 12.369-8.612 5.925 6.342 10.765 8.612 16.325 8.612 11.872 0 14.672-7.093 14.672-16.825v-24.337h7.26v-7.06h-23.034v7.06h7.06v21.133c0 10.322-2.659 12.117-7.711 12.117-5.987 0-10.603-3.872-13.32-8.512v-24.738h7.261v-7.06h-23.235v7.06h7.261v21.133c0 10.093-2.401 12.117-7.261 12.117-4.6 0-8.861-2.302-13.77-8.112v-25.138h7.06v-7.06h-23.034v7.06h7.26v32.849h-7.26v7.061h15.974z"/>
   <path transform="matrix(1.3333 0 0 -1.3333 749.33 366.36)" d="m0 0c0-4.974 1.527-9.106 4.581-12.393 3.055-3.289 6.852-4.932 11.393-4.932 4.606 0 8.445 1.635 11.517 4.906 3.071 3.272 4.607 7.412 4.607 12.419 0 5.041-1.511 9.172-4.532 12.394-3.022 3.221-6.885 4.832-11.592 4.832-4.607 0-8.422-1.611-11.442-4.832-3.022-3.222-4.532-7.353-4.532-12.394m-15.423 43.165v7.211h16.024v-32.549c2.303 2.37 4.798 4.114 7.486 5.233 2.687 1.118 5.734 1.678 9.139 1.678 6.843 0 12.568-2.379 17.175-7.137 4.607-4.756 6.91-10.624 6.91-17.601 0-7.044-2.336-12.911-7.01-17.601s-10.583-7.036-17.727-7.036c-3.338 0-6.268 0.535-8.788 1.603-2.521 1.068-4.916 2.804-7.185 5.207v-5.658h-16.024v7.06h7.211v59.59z"/>
   <path transform="matrix(1.3333 0 0 -1.3333 845.43 360.61)" d="m0 0h31.547c-0.668 4.306-2.346 7.586-5.032 9.84-2.688 2.253-6.268 3.38-10.742 3.38-4.473 0-8.054-1.127-10.741-3.38-2.687-2.254-4.364-5.534-5.032-9.84m39.559-13.821c-2.17-4.741-5.367-8.463-9.589-11.167-4.224-2.704-8.989-4.055-14.296-4.055-7.445 0-13.446 2.302-18.002 6.909-4.557 4.607-6.835 10.717-6.835 18.328 0 7.311 2.269 13.178 6.81 17.601 4.539 4.423 10.582 6.636 18.126 6.636 7.478 0 13.503-2.388 18.078-7.161 4.573-4.775 6.86-11.117 6.86-19.029v-1.102h-40.711c0.333-4.406 2.061-7.97 5.183-10.691 3.121-2.721 7.035-4.08 11.742-4.08 2.971 0 5.717 0.675 8.237 2.028 2.521 1.351 4.582 3.279 6.185 5.783z"/>
   <path transform="matrix(1.3333 0 0 -1.3333 940.87 366.36)" d="m0 0c0-5.007 1.535-9.147 4.607-12.419 3.071-3.271 6.893-4.906 11.467-4.906 4.573 0 8.387 1.635 11.442 4.906 3.054 3.272 4.582 7.412 4.582 12.419s-1.528 9.131-4.582 12.369c-3.055 3.237-6.869 4.857-11.442 4.857-4.707 0-8.563-1.611-11.567-4.832-3.005-3.222-4.507-7.353-4.507-12.394m31.447 43.165h-7.861v7.211h16.724v-66.801h7.161v-7.06h-16.024v5.658c-2.271-2.403-4.657-4.139-7.161-5.207-2.503-1.068-5.441-1.603-8.813-1.603-7.144 0-13.053 2.346-17.726 7.036-4.674 4.69-7.01 10.557-7.01 17.601 0 6.977 2.302 12.845 6.909 17.601 4.607 4.758 10.349 7.137 17.226 7.137 3.372 0 6.401-0.56 9.089-1.678 2.687-1.119 5.183-2.863 7.486-5.233z"/>
   <path transform="matrix(1.3333 0 0 -1.3333 1045.3 366.36)" d="m0 0c0-5.007 1.535-9.147 4.607-12.419 3.071-3.271 6.893-4.906 11.467-4.906 4.573 0 8.387 1.635 11.442 4.906 3.054 3.272 4.582 7.412 4.582 12.419s-1.528 9.131-4.582 12.369c-3.055 3.237-6.869 4.857-11.442 4.857-4.707 0-8.563-1.611-11.567-4.832-3.005-3.222-4.507-7.353-4.507-12.394m31.447 43.165h-7.861v7.211h16.724v-66.801h7.161v-7.06h-16.024v5.658c-2.271-2.403-4.657-4.139-7.161-5.207-2.503-1.068-5.442-1.603-8.813-1.603-7.144 0-13.053 2.346-17.726 7.036-4.674 4.69-7.011 10.557-7.011 17.601 0 6.977 2.303 12.845 6.91 17.601 4.607 4.758 10.349 7.137 17.226 7.137 3.372 0 6.401-0.56 9.089-1.678 2.687-1.119 5.182-2.863 7.486-5.233z"/>
   <path transform="matrix(1.3333 0 0 -1.3333 1149.6 360.61)" d="m0 0h31.547c-0.668 4.306-2.346 7.586-5.032 9.84-2.688 2.253-6.268 3.38-10.742 3.38-4.473 0-8.054-1.127-10.741-3.38-2.687-2.254-4.364-5.534-5.032-9.84m39.559-13.821c-2.17-4.741-5.367-8.463-9.589-11.167-4.224-2.704-8.989-4.055-14.296-4.055-7.445 0-13.446 2.302-18.002 6.909-4.557 4.607-6.835 10.717-6.835 18.328 0 7.311 2.269 13.178 6.81 17.601 4.539 4.423 10.582 6.636 18.126 6.636 7.478 0 13.503-2.388 18.078-7.161 4.573-4.775 6.86-11.117 6.86-19.029v-1.102h-40.711c0.333-4.406 2.061-7.97 5.183-10.691 3.121-2.721 7.035-4.08 11.742-4.08 2.971 0 5.717 0.675 8.237 2.028 2.52 1.351 4.582 3.279 6.185 5.783z"/>
   <path transform="matrix(1.3333 0 0 -1.3333 1245.1 366.36)" d="m0 0c0-5.007 1.535-9.147 4.607-12.419 3.071-3.271 6.893-4.906 11.467-4.906 4.573 0 8.387 1.635 11.442 4.906 3.054 3.272 4.582 7.412 4.582 12.419s-1.528 9.131-4.582 12.369c-3.055 3.237-6.869 4.857-11.442 4.857-4.707 0-8.563-1.611-11.567-4.832-3.005-3.222-4.507-7.353-4.507-12.394m31.447 43.165h-7.861v7.211h16.724v-66.801h7.161v-7.06h-16.024v5.658c-2.271-2.403-4.657-4.139-7.161-5.207-2.503-1.068-5.442-1.603-8.813-1.603-7.144 0-13.053 2.346-17.726 7.036-4.674 4.69-7.011 10.557-7.011 17.601 0 6.977 2.303 12.845 6.91 17.601 4.607 4.758 10.349 7.137 17.226 7.137 3.372 0 6.401-0.56 9.089-1.678 2.687-1.119 5.182-2.863 7.486-5.233z"/>
   <path transform="matrix(1.3333 0 0 -1.3333 1393.9 397.67)" d="m0 0v7.361h8.012v59.089h-8.012v7.411h57.135v-20.03h-8.713v12.619h-30.646v-23.486h25.638v-8.112h-25.638v-27.491h30.646v14.472h8.713v-21.833z"/>
   <path transform="matrix(1.3333 0 0 -1.3333 1517.7 375.5)" d="m0 0v-1.553c0-3.772 0.325-6.05 0.977-6.835 0.65-0.784 2.144-1.177 4.481-1.177 0.367 0 1.452 0.151 3.255 0.451l0.501 0.051v-7.462c-1.002-0.167-2.087-0.292-3.255-0.375-1.169-0.083-2.537-0.125-4.106-0.125-3.84 0-6.493 0.658-7.962 1.978-1.469 1.318-2.203 3.663-2.203 7.035v31.296h-8.513v7.061h8.513v17.526h8.312v-17.526h9.214v-7.061h-9.214z"/>
   <path transform="matrix(1.3333 0 0 -1.3333 1623.2 388.26)" d="m0 0h7.161v-7.06h-23.285v7.06h7.311v21.132c0 4.94-0.634 8.178-1.903 9.714s-3.405 2.304-6.41 2.304c-2.471 0-4.907-0.651-7.311-1.953-2.403-1.302-4.89-3.322-7.46-6.059v-25.138h7.26v-7.06h-23.284v7.06h7.211v59.59h-7.211v7.21h16.024v-33.55c2.736 2.704 5.499 4.698 8.287 5.984 2.787 1.285 5.734 1.928 8.838 1.928 2.67 0 5.058-0.476 7.161-1.428 2.103-0.951 3.822-2.328 5.158-4.131 0.867-1.169 1.493-2.478 1.877-3.93 0.384-1.453 0.576-3.598 0.576-6.435v-0.901z"/>
   <path transform="matrix(1.3333 0 0 -1.3333 1681.4 314.11)" d="m0 0c0-3.385-2.744-6.13-6.13-6.13-3.385 0-6.129 2.745-6.129 6.13s2.744 6.13 6.129 6.13c3.386 0 6.13-2.745 6.13-6.13m0-55.612h8.212v-7.061h-25.037v7.061h8.111v32.849h-8.111v7.061h16.825z"/>
   <path transform="matrix(1.3333 0 0 -1.3333 1771.3 379.51)" d="m0 0 4.707-4.607c-2.571-3.338-5.658-5.884-9.263-7.636-3.606-1.753-7.595-2.629-11.969-2.629-7.11 0-12.769 2.228-16.975 6.685-4.207 4.457-6.309 10.407-6.309 17.851 0 7.478 2.044 13.503 6.134 18.077 4.088 4.574 9.472 6.861 16.149 6.861 3.037 0 5.725-0.468 8.062-1.402 2.336-0.935 4.44-2.387 6.31-4.357v4.507h6.86v-16.224h-6.259c-1.336 3.371-3.189 5.908-5.559 7.611-2.371 1.702-5.208 2.553-8.513 2.553-4.239 0-7.654-1.61-10.24-4.832-2.587-3.221-3.881-7.485-3.881-12.794 0-5.375 1.385-9.572 4.157-12.593 2.77-3.022 6.642-4.532 11.617-4.532 2.87 0 5.55 0.617 8.037 1.853 2.486 1.234 4.799 3.104 6.935 5.608"/>
   <path transform="matrix(1.3333 0 0 -1.3333 1817.3 397.67)" d="m0 0h-6.861v15.272h6.861c1.268-2.903 3.355-5.216 6.259-6.935s6.192-2.578 9.864-2.578c3.038 0 5.509 0.642 7.412 1.928 1.903 1.284 2.854 2.962 2.854 5.032 0 1.635-0.534 2.904-1.602 3.806-1.069 0.901-2.905 1.585-5.509 2.053l-11.066 1.953c-5.108 0.868-8.863 2.436-11.267 4.707-2.403 2.27-3.605 5.34-3.605 9.213 0 4.24 1.543 7.595 4.632 10.065 3.087 2.471 7.318 3.706 12.694 3.706 3.271 0 6.176-0.484 8.713-1.452 2.536-0.969 4.322-2.237 5.357-3.806v4.006h6.961v-14.472h-6.961c-1.635 3.238-3.58 5.592-5.833 7.061s-5.033 2.203-8.338 2.203c-2.804 0-5.04-0.618-6.71-1.853-1.669-1.235-2.503-2.887-2.503-4.957 0-1.636 0.608-2.929 1.827-3.881 1.218-0.951 3.163-1.66 5.834-2.128l9.665-1.653c5.841-1.001 9.914-2.52 12.218-4.556 2.303-2.036 3.455-5.008 3.455-8.913 0-4.507-1.669-8.146-5.008-10.917-3.338-2.771-7.745-4.156-13.22-4.156-3.138 0-6.025 0.493-8.662 1.477-2.637 0.985-5.125 2.479-7.461 4.482z"/>
   <path transform="matrix(1.3333 0 0 -1.3333 509.89 213.46)" d="m0 0c0-6.697 1.198-11.449 3.595-14.256 2.395-2.807 6.335-4.211 11.818-4.211 5.515 0 9.479 1.412 11.892 4.236 2.414 2.822 3.62 7.566 3.62 14.231v39.937h-7.928v7.288h25.508v-7.288h-7.977v-39.937c0-8.996-2.077-15.717-6.23-20.165-4.154-4.45-10.448-6.673-18.885-6.673s-14.716 2.216-18.836 6.648-6.18 11.161-6.18 20.19v39.937h-7.977v7.288h25.41v-7.288h-7.83z"/>
   <path transform="matrix(1.3333 0 0 -1.3333 673.78 216.8)" d="m0 0c-1.872-7.682-5.574-13.657-11.105-17.925-5.532-4.268-12.352-6.401-20.461-6.401-10.735 0-19.574 3.553-26.518 10.661-6.943 7.107-10.415 16.127-10.415 27.06 0 10.8 3.439 19.787 10.317 26.96 6.877 7.173 15.519 10.76 25.927 10.76 4.629 0 8.822-0.697 12.582-2.093 3.759-1.395 6.852-3.422 9.282-6.081v6.795h7.879v-22.504h-7.485c-1.641 5.154-4.259 9.012-7.854 11.572-3.595 2.561-8.199 3.842-13.813 3.842-8.175 0-14.708-2.66-19.599-7.978-4.892-5.318-7.338-12.41-7.338-21.273 0-8.667 2.544-15.709 7.633-21.126s11.687-8.126 19.796-8.126c5.417 0 9.955 1.313 13.616 3.94 3.661 2.626 6.525 6.599 8.594 11.917z"/>
   <path transform="matrix(1.3333 0 0 -1.3333 718.41 239.27)" d="m0 0 7.141 11.045c6.917-4.389 13.684-6.582 20.305-6.582 4.239 0 7.568 0.669 9.985 2.008s3.626 3.347 3.626 6.025c0 1.635-0.39 2.993-1.171 4.072-0.781 1.077-2.158 2.119-4.128 3.124-1.972 1.004-4.928 2.287-8.87 3.849l-2.566 1.004c-4.761 1.858-8.591 3.644-11.491 5.356-2.902 1.71-5.208 3.904-6.918 6.582-1.712 2.678-2.566 6.061-2.566 10.153 0 4.536 1.301 8.312 3.905 11.324 2.603 3.013 5.95 5.225 10.041 6.638 4.09 1.413 8.441 2.121 13.054 2.121 4.164 0 8.46-0.69 12.886-2.065 4.424-1.377 8.647-3.403 12.663-6.08l-7.208-10.934c-3.55 2.157-6.691 3.718-9.426 4.686-2.735 0.966-5.692 1.45-8.87 1.45-3.549 0-6.229-0.596-8.04-1.785-1.811-1.19-2.716-2.789-2.716-4.797 0-1.266 0.37-2.399 1.109-3.403 0.739-1.005 2.069-2.009 3.992-3.013s4.696-2.175 8.319-3.514l2.441-0.893c4.731-1.784 8.557-3.458 11.479-5.02 2.92-1.562 5.378-3.793 7.375-6.695 1.997-2.9 2.996-6.657 2.996-11.268 0-4.836-1.266-8.908-3.794-12.217-2.529-3.31-5.968-5.784-10.32-7.419-4.351-1.635-9.279-2.455-14.783-2.455-11.157 0-20.64 2.901-28.45 8.703"/>
   <path transform="matrix(1.3333 0 0 -1.3333 834.74 208.77)" d="m0 0h18.297l-9.26 27.558zm19.19 42.285 25.995-71.405v-0.892h-16.847l-5.801 17.293h-26.777l-5.69-17.293h-16.624v0.892l25.996 71.405z"/>
   <path transform="matrix(1.3333 0 0 -1.3333 993.02 152.39)" d="m0 0v-72.297h-17.182l-22.728 33.694c-1.942 2.974-3.584 5.559-4.927 7.754-1.344 2.193-2.649 4.667-3.918 7.419v-48.867h-15.397v72.297h16.958l24.744-37.041c0.298-0.446 0.969-1.47 2.015-3.068 1.044-1.601 1.996-3.107 2.854-4.519 0.858-1.414 1.587-2.789 2.185-4.128v48.756z"/>
   <path transform="matrix(1.3333 0 0 -1.3333 1087.5 152.39)" d="m0 0v-13.5h-22.983v-58.797h-15.396v58.797h-23.095v13.5z"/>
   <path transform="matrix(1.3333 0 0 -1.3333 1113.1 208.77)" d="m0 0h18.297l-9.26 27.558zm19.19 42.285 25.995-71.405v-0.892h-16.847l-5.801 17.293h-26.777l-5.69-17.293h-16.624v0.892l25.996 71.405z"/>
   <path transform="matrix(1.3333 0 0 -1.3333 1270.6 228.48)" d="m0 0c1.97 1.673 2.955 3.922 2.955 6.75 0 2.751-1.023 4.945-3.07 6.582-2.047 1.635-5.153 2.455-9.319 2.455h-11.821v-18.297h11.366c4.622 0 7.919 0.836 9.889 2.51m-21.255 44.572v-16.848h8.907c8.267 0 12.402 2.938 12.402 8.815 0 2.602-0.922 4.592-2.763 5.969-1.841 1.375-4.529 2.064-8.061 2.064zm34.307-25.606c2.12-1.748 3.681-3.737 4.686-5.969 1.004-2.231 1.506-4.574 1.506-7.029 0-6.768-2.381-11.993-7.14-15.675-4.761-3.682-11.567-5.522-20.418-5.522h-28.338v72.297h26.442c5.726 0 10.58-0.801 14.559-2.399 3.979-1.601 6.973-3.832 8.982-6.694 2.008-2.864 3.012-6.231 3.012-10.097 0-3.199-0.931-6.156-2.789-8.87-1.86-2.716-4.649-4.78-8.368-6.192 3.124-0.82 5.746-2.103 7.866-3.85"/>
   <path transform="matrix(1.3333 0 0 -1.3333 1336.9 208.77)" d="m0 0h18.297l-9.26 27.558zm19.19 42.285 25.995-71.405v-0.892h-16.847l-5.801 17.293h-26.777l-5.69-17.293h-16.624v0.892l25.996 71.405z"/>
   <path transform="matrix(1.3333 0 0 -1.3333 1430.2 197.76)" d="m0 0h6.952c4.558 0 8.073 0.854 10.541 2.566 2.469 1.71 3.705 4.536 3.705 8.479 0 3.421-1.102 5.986-3.305 7.698-2.204 1.71-5.281 2.566-9.231 2.566h-8.662zm41.95-37.376v-0.892h-17.705l-18.156 26.33h-6.089v-26.33h-15.397v72.296h24.211c6.396 0 11.732-0.987 16.01-2.957 4.276-1.971 7.456-4.648 9.539-8.033 2.082-3.385 3.124-7.234 3.124-11.546 0-5.059-1.265-9.428-3.794-13.11s-6.247-6.415-11.156-8.2z"/>
   <path transform="matrix(1.3333 0 0 -1.3333 1547.9 228.48)" d="m0 0c1.97 1.673 2.954 3.922 2.954 6.75 0 2.751-1.022 4.945-3.069 6.582-2.047 1.635-5.153 2.455-9.319 2.455h-11.821v-18.297h11.366c4.622 0 7.919 0.836 9.889 2.51m-21.255 44.572v-16.848h8.907c8.267 0 12.402 2.938 12.402 8.815 0 2.602-0.922 4.592-2.763 5.969-1.841 1.375-4.529 2.064-8.061 2.064zm34.307-25.606c2.12-1.748 3.681-3.737 4.686-5.969 1.004-2.231 1.506-4.574 1.506-7.029 0-6.768-2.381-11.993-7.14-15.675-4.761-3.682-11.567-5.522-20.418-5.522h-28.338v72.297h26.442c5.726 0 10.58-0.801 14.559-2.399 3.979-1.601 6.973-3.832 8.981-6.694 2.009-2.864 3.013-6.231 3.013-10.097 0-3.199-0.931-6.156-2.789-8.87-1.86-2.716-4.649-4.78-8.367-6.192 3.123-0.82 5.745-2.103 7.865-3.85"/>
   <path transform="matrix(1.3333 0 0 -1.3333 1614.2 208.77)" d="m0 0h18.297l-9.26 27.558zm19.19 42.285 25.995-71.405v-0.892h-16.847l-5.801 17.293h-26.777l-5.69-17.293h-16.624v0.892l25.996 71.405z"/>
   <path transform="matrix(1.3333 0 0 -1.3333 1707.5 197.76)" d="m0 0h6.952c4.558 0 8.073 0.854 10.542 2.566 2.468 1.71 3.704 4.536 3.704 8.479 0 3.421-1.102 5.986-3.305 7.698-2.204 1.71-5.281 2.566-9.231 2.566h-8.662zm41.95-37.376v-0.892h-17.705l-18.156 26.33h-6.089v-26.33h-15.397v72.296h24.211c6.396 0 11.732-0.987 16.01-2.957 4.276-1.971 7.456-4.648 9.539-8.033 2.082-3.385 3.124-7.234 3.124-11.546 0-5.059-1.265-9.428-3.793-13.11-2.53-3.682-6.248-6.415-11.157-8.2z"/>
   <path transform="matrix(1.3333 0 0 -1.3333 1803 208.77)" d="m0 0h18.297l-9.26 27.558zm19.19 42.285 25.995-71.405v-0.892h-16.847l-5.801 17.293h-26.777l-5.69-17.293h-16.624v0.892l25.996 71.405z"/>
  </g>
 </g>
</svg>
